<svg xmlns="http://www.w3.org/2000/svg" viewBox="0 0 64 64">
  <defs>
    <radialGradient id="bg" cx="50%" cy="40%" r="55%">
      <stop offset="0%" stop-color="#0c0e14"/><stop offset="100%" stop-color="#020304"/>
    </radialGradient>
    <radialGradient id="metal" cx="35%" cy="20%" r="70%">
      <stop offset="0%" stop-color="#b0b8c8"/><stop offset="40%" stop-color="#6878a0"/><stop offset="100%" stop-color="#1e2838"/>
    </radialGradient>
    <linearGradient id="gold" x1="0%" y1="0%" x2="100%" y2="100%">
      <stop offset="0%" stop-color="#d8a830"/><stop offset="100%" stop-color="#7a5010"/>
    </linearGradient>
    <linearGradient id="leather" x1="0%" y1="0%" x2="100%" y2="100%">
      <stop offset="0%" stop-color="#4a2c10"/><stop offset="100%" stop-color="#1c0c04"/>
    </linearGradient>
  </defs>
  <rect width="64" height="64" rx="6" fill="url(#bg)"/>
  <!-- Wrist cuff left -->
  <path d="M8,24 Q8,18 16,18 L20,18 L20,30 Q20,36 16,38 Q8,36 8,30Z" fill="url(#metal)"/>
  <path d="M8,24 Q16,20 20,22" fill="none" stroke="white" stroke-width="0.6" opacity="0.3"/>
  <!-- Left finger plates -->
  <rect x="10" y="36" width="5" height="12" rx="2" fill="url(#metal)"/>
  <rect x="10" y="36" width="5" height="4" fill="white" opacity="0.15" rx="2"/>
  <rect x="16" y="34" width="5" height="14" rx="2" fill="url(#metal)"/>
  <rect x="16" y="34" width="5" height="4" fill="white" opacity="0.15" rx="2"/>
  <rect x="10" y="47" width="5" height="4" rx="1.5" fill="url(#metal)" stroke="url(#gold)" stroke-width="0.5"/>
  <rect x="16" y="47" width="5" height="4" rx="1.5" fill="url(#metal)" stroke="url(#gold)" stroke-width="0.5"/>
  <!-- Left thumb -->
  <path d="M6,30 Q4,32 5,37 Q8,38 10,36 L10,30Z" fill="url(#metal)"/>
  <!-- Gold knuckle guard left -->
  <path d="M8,34 Q15,32 22,34" fill="none" stroke="url(#gold)" stroke-width="2"/>
  <path d="M8,24 Q8,18 16,18" fill="none" stroke="url(#gold)" stroke-width="1.5"/>
  <!-- Wrist cuff right -->
  <path d="M56,24 Q56,18 48,18 L44,18 L44,30 Q44,36 48,38 Q56,36 56,30Z" fill="url(#metal)"/>
  <path d="M56,24 Q48,20 44,22" fill="none" stroke="white" stroke-width="0.6" opacity="0.3"/>
  <!-- Right finger plates -->
  <rect x="49" y="36" width="5" height="12" rx="2" fill="url(#metal)"/>
  <rect x="49" y="36" width="5" height="4" fill="white" opacity="0.15" rx="2"/>
  <rect x="43" y="34" width="5" height="14" rx="2" fill="url(#metal)"/>
  <rect x="43" y="34" width="5" height="4" fill="white" opacity="0.15" rx="2"/>
  <rect x="49" y="47" width="5" height="4" rx="1.5" fill="url(#metal)" stroke="url(#gold)" stroke-width="0.5"/>
  <rect x="43" y="47" width="5" height="4" rx="1.5" fill="url(#metal)" stroke="url(#gold)" stroke-width="0.5"/>
  <!-- Right thumb -->
  <path d="M58,30 Q60,32 59,37 Q56,38 54,36 L54,30Z" fill="url(#metal)"/>
  <!-- Gold knuckle guard right -->
  <path d="M56,34 Q49,32 42,34" fill="none" stroke="url(#gold)" stroke-width="2"/>
  <path d="M56,24 Q56,18 48,18" fill="none" stroke="url(#gold)" stroke-width="1.5"/>
  <!-- Gem on right cuff -->
  <circle cx="50" cy="24" r="3" fill="#2040c0" stroke="url(#gold)" stroke-width="1"/>
  <circle cx="49" cy="23" r="1" fill="#8090f8" opacity="0.6"/>
</svg>
