<svg style="background:transparent" xmlns="http://www.w3.org/2000/svg" viewBox="0 0 512 512">
  <defs>
    <radialGradient id="bgGlow" cx="50%" cy="50%" r="50%">
      <stop offset="0%" stop-color="rgba(116,199,255,0.7)"/>
      <stop offset="100%" stop-color="rgba(0,0,0,0)"/>
    </radialGradient>
    <linearGradient id="iconGrad" x1="0%" y1="0%" x2="60%" y2="100%">
      <stop offset="0%" stop-color="#d6eeff"/>
      <stop offset="45%" stop-color="#74c7ff"/>
      <stop offset="100%" stop-color="#2471a3"/>
    </linearGradient>
    <filter id="glow" x="-20%" y="-20%" width="140%" height="140%">
      <feGaussianBlur stdDeviation="12" result="blur"/>
      <feMerge>
        <feMergeNode in="blur"/>
        <feMergeNode in="SourceGraphic"/>
      </feMerge>
    </filter>
    <filter id="shadow" x="-10%" y="-10%" width="120%" height="120%">
      <feDropShadow dx="0" dy="4" stdDeviation="8" flood-color="#2471a3" flood-opacity="0.7"/>
    </filter>
  </defs>
  <ellipse cx="256" cy="256" rx="240" ry="240" fill="url(#bgGlow)" opacity="0.5"/>
  <g filter="url(#shadow)">
    <g filter="url(#glow)">
      <path fill="url(#iconGrad)" d="M102.594 25.25c-.672 0-1.33.013-2 .03-16.057.432-31.337 6.06-44.03 15.126-33.852 24.18-50.126 74.626-18.408 117.75C63.13 192.11 52.25 236.92 26.406 261.97l13 13.436c31.974-30.99 44.87-86.05 13.782-128.312-25.944-35.273-12.25-72.562 14.218-91.47C80.64 46.172 96.88 41.747 113.22 44.97c15.68 3.092 31.976 13.18 46.405 34.655l-59.22 34.28 24.126 41.907c-49.46 63.358-58.506 153.024-15.905 227.032 55.97 97.235 179.88 130.596 276.75 74.5 96.87-56.096 130.033-180.39 74.063-277.625-37.606-65.33-105.866-101.82-176-101.72-9.166.013-18.365.66-27.532 1.938l-24.22-42.063-55.842 32.344c-16.773-25.376-37.755-39.373-59-43.564-4.776-.942-9.55-1.403-14.25-1.406zM285.78 137.5l56.783 32.78-28.063 48.564c5.73 2.402 11.203 5.505 16.22 9.312l28.03-48.53 56.688 32.718v65.53h-55.97c.807 6.256.804 12.516.032 18.688h55.938v65.5l-56.72 32.75-27.874-48.312c-2.508 1.91-5.135 3.694-7.938 5.313-2.683 1.548-5.438 2.88-8.22 4.062l27.877 48.28-56.782 32.783-56.686-32.75L256.906 356c-5.728-2.398-11.172-5.51-16.187-9.313l-27.814 48.157-56.78-32.78V296.56h55.718c-.773-6.25-.707-12.525.094-18.687h-55.813v-65.53l56.75-32.75 28 48.436c2.408-1.812 4.948-3.516 7.625-5.06 2.805-1.62 5.683-3.003 8.594-4.22l-28-48.53 56.687-32.72z"/>
    </g>
  </g>
</svg>