<svg style="background:transparent" xmlns="http://www.w3.org/2000/svg" viewBox="0 0 512 512">
  <defs>
    <radialGradient id="bgGlow" cx="50%" cy="50%" r="50%">
      <stop offset="0%" stop-color="rgba(241,196,15,0.8)"/>
      <stop offset="100%" stop-color="rgba(0,0,0,0)"/>
    </radialGradient>
    <linearGradient id="iconGrad" x1="0%" y1="0%" x2="60%" y2="100%">
      <stop offset="0%" stop-color="#fff176"/>
      <stop offset="45%" stop-color="#f1c40f"/>
      <stop offset="100%" stop-color="#7d6608"/>
    </linearGradient>
    <filter id="glow" x="-20%" y="-20%" width="140%" height="140%">
      <feGaussianBlur stdDeviation="12" result="blur"/>
      <feMerge>
        <feMergeNode in="blur"/>
        <feMergeNode in="SourceGraphic"/>
      </feMerge>
    </filter>
    <filter id="shadow" x="-10%" y="-10%" width="120%" height="120%">
      <feDropShadow dx="0" dy="4" stdDeviation="8" flood-color="#7d6608" flood-opacity="0.7"/>
    </filter>
  </defs>
  <ellipse cx="256" cy="256" rx="240" ry="240" fill="url(#bgGlow)" opacity="0.5"/>
  <g filter="url(#shadow)">
    <g filter="url(#glow)">
      <path fill="url(#iconGrad)" d="M292.53 20.5l19 40.594L66.314 28.75 362.03 158.125l-18.967-40.594 149.218 15.282L292.53 20.5zm-252 23.375L318.314 413.97 312.906 348l184.97 146.5L294 186.656l5.406 65.97L40.53 43.875zM20.907 76.22l36.5 316.405L83.03 351.75l68.095 139.344-9.594-241.125-25.624 40.843-95-214.594z"/>
    </g>
  </g>
</svg>