<svg style="background:transparent" xmlns="http://www.w3.org/2000/svg" viewBox="0 0 512 512">
  <defs>
    <radialGradient id="bgGlow" cx="50%" cy="50%" r="50%">
      <stop offset="0%" stop-color="rgba(241,196,15,0.6)"/>
      <stop offset="100%" stop-color="rgba(0,0,0,0)"/>
    </radialGradient>
    <linearGradient id="iconGrad" x1="0%" y1="0%" x2="60%" y2="100%">
      <stop offset="0%" stop-color="#fff176"/>
      <stop offset="45%" stop-color="#f1c40f"/>
      <stop offset="100%" stop-color="#7d6608"/>
    </linearGradient>
    <filter id="glow" x="-20%" y="-20%" width="140%" height="140%">
      <feGaussianBlur stdDeviation="12" result="blur"/>
      <feMerge>
        <feMergeNode in="blur"/>
        <feMergeNode in="SourceGraphic"/>
      </feMerge>
    </filter>
    <filter id="shadow" x="-10%" y="-10%" width="120%" height="120%">
      <feDropShadow dx="0" dy="4" stdDeviation="8" flood-color="#7d6608" flood-opacity="0.7"/>
    </filter>
  </defs>
  <ellipse cx="256" cy="256" rx="240" ry="240" fill="url(#bgGlow)" opacity="0.5"/>
  <g filter="url(#shadow)">
    <g filter="url(#glow)">
      <path fill="url(#iconGrad)" d="M255.157 123c-68.66 0-137.1 18.922-182.867 55.275.234 14.35 1.818 35.624 9.332 48.23 110.634-60.336 236.436-60.336 347.07 0 7.513-12.606 9.098-33.88 9.332-48.23C392.257 141.922 323.817 123 255.157 123zm199.81 76.057c-.324 2.98-.718 6.02-1.246 9.082-2.226 12.93-6.213 26.458-15.99 35.98-14.436 18.637-40.806 30.462-72.858 38.603C332.392 290.973 293.79 295 255.157 295c-38.632 0-77.235-4.028-109.715-12.277-31.907-8.104-58.17-19.868-72.648-38.36-11.983-11.982-16.234-28.786-17.77-43.857-13.73 27.256-11.503 62.122.672 98.648C69.988 342.03 129.406 389 255.156 389c125.75 0 185.17-46.97 199.462-89.846l.1-.297.12-.287c15.134-36.712 15.61-71.983.13-99.513z"/>
    </g>
  </g>
</svg>